<svg version="1.2" xmlns="http://www.w3.org/2000/svg" viewBox="0 0 2519 824" width="2519" height="824">
	<title>logo-svg</title>
	<style>
		.s0 { fill: #ffffff } 
		.s1 { fill: #75ee16 } 
		.s2 { fill: #272223 } 
		.s3 { fill: #292425 } 
		.s4 { fill: #292526 } 
		.s5 { fill: #292728 } 
		.s6 { fill: #fffffe } 
	</style>
	<path id="Layer" fill-rule="evenodd" class="s0" d="m1319 1669c-390 0-779 0-1168 0q0-1260 0-2520 1108 0 2216 0 0 1260 0 2520c-349 0-698 0-1048 0zm-643-1026.1c18.2-13.4 35.1-28.3 50.5-45 30.9-33.7 53.5-72 65.5-116.1 9-32.9 12.5-66.4 9.6-100.6-1.8-20.9-4.3-41.6-9.9-61.8-14.6-53.1-42.7-97.7-83.1-134.9-30.6-28.2-65.1-49.2-104.6-62.4-31.5-10.5-64.1-14.2-97.2-14.8-1.1 0-2.3 1-4.5 2 0 19 0 38.2 0 57.3-126.3-5.9-235.1 100.9-238.9 225.4-1.8 58.5 13 112 50.6 157.7 48.4 58.9 110.6 89.9 188.8 88.9 0 19.2 0 37.6 0 56.5 63.8 1.2 120.9-15 173.2-52.2zm1277.9-191.8c8.8 11.7 19.9 20.4 33.6 25.6 11.5 4.3 23.4 4.5 35.4 4.5 22.6 0 41.4-8.5 56.8-24.7 24.3-25.7 24.4-70.5-5.1-95.2-16.1-13.5-34-19.7-55-19.3-13.8 0.3-26.1 3.9-37.6 11.2-1.8 1.1-4.2 3.2-4.3 4.9-0.5 7.7-0.3 15.4-0.3 24.5 4.7-3.2 7.7-5.3 10.6-7.3 16.8-11.6 35-12.3 53.1-4.8 28.6 11.9 36.6 45.4 17.3 69.3-10.4 12.9-24 17.8-40.4 17.4-22.8-0.6-40.4-12.5-46.9-34.5-2.5-8.4-3.5-17.6-3.6-26.4-0.4-35-0.1-69.9-0.2-104.9 0-2.9-0.2-5.8-0.4-8.8-8.9 0-17.1 0-26.3 0 0 3.6 0 6.8 0 10.1 0 37.2 0.1 74.5 0 111.8-0.1 16.4 3.4 31.7 13.3 46.6zm-514.3 30c33.3-1.7 59.2-24 67.1-56.4-5.9-2.9-12-6-18.5-9.2-1.6 4.1-2.5 7.8-4.5 10.8-4.8 7-9.1 14.8-15.3 20.5-19 17.7-57.4 19-78.4-7.8-12.4-15.8-14.5-37.1-2.2-54.6 13.1-18.5 34.4-23.8 57.9-18.2 6.5 1.5 12 4.9 17.3 10.5-24.2 14.5-48 28.8-71.9 43.2 4.2 6.4 7.8 11.9 11.9 18.1 32.3-18.7 64.1-37.2 95.8-55.6-5.4-10.2-13.3-18.5-22.4-26.1-22.2-18.6-67.5-17.9-89.9-4-21.7 13.4-34.3 32-35.1 57.7-1 33.2 21.6 56.6 48.9 67 12.1 4.7 24.8 4.2 39.3 4.1zm-546-132.5c-6.5 3.9-13.5 7.2-19.4 11.9-33.9 27.1-33 77.2 1.4 103.5 15.1 11.5 31.8 17.1 50.9 17.3 16.8 0.2 32.4-2.8 46.5-11.9 31-20 41.3-52.5 27.4-83.6-11.3-25.4-32.3-40.3-60.3-43.3-15.2-1.6-30.6-1.1-46.5 6.1zm1272.4-5.6c-28.4 4.4-50 28-49.5 60.7 0.4 22 0.1 44 0.1 66 0 2.6 0.3 5.2 0.5 8 8.8 0 17.3 0 26.3 0 0-20.6-0.2-40.6 0.1-60.6 0.1-7.5 0.6-15.2 1.9-22.7 1.8-10.1 6.3-19.2 16-23.9 13.3-6.4 27-6.6 40.2 0.3 11.5 6 16.3 16.8 16.8 28.8 1 21.9 0.7 43.9 0.9 65.9 0 3.9 0 7.8 0 12.3 9.4 0 17.9 0 26.7 0 0.3-1.7 0.7-3 0.7-4.2 0-24.7 0.8-49.4-0.2-74-1.1-27.5-14.4-45.2-39.3-54.4-12.8-4.7-26.3-3.1-41.2-2.2zm-908 135.3c11.7 0 23.3 0.4 34.9-0.1 6.9-0.3 14-1.3 20.5-3.4 7.2-2.3 14.1-5.9 18-13.3 7.5-14.4 7.2-38.8-14.7-46.8-3.4-1.2-6.7-2.9-10.2-4-17-5.4-34.2-10.7-51.2-16.1-2.9-0.9-5.7-1.8-8.4-3-6.7-3-9.9-7.5-9.5-12.7 0.6-6.2 5.3-10.8 12.8-12 6.6-0.9 13.2-1.6 19.8-1.7 15.6-0.3 31.3 0 46.9-0.1 2.5 0 5.1-0.5 7.3-0.7 0-6.7 0-12.6 0-18.5-1.4-0.4-2.3-0.8-3.2-0.8-23.4 0-46.7-0.5-69.9 0.2-8.1 0.3-16.5 2.8-24.1 5.8-12.2 4.8-17.5 15.2-17.5 27.7-0.1 12.1 5 22 16.7 27.1 7.8 3.5 16 6.3 24.1 9.1 15.7 5.2 31.7 9.9 47.3 15.5 8.2 2.9 11 8.8 9.5 16.3-1.1 6-6.1 9.7-14.1 10.2-9.9 0.6-19.9 1-29.8 1.2-13.3 0.2-26.6 0-40 0-2.5 0.1-5 0.5-7.4 0.8 0 6.6 0 12.4 0 19.3 13.7 0 27 0 42.2 0zm-186.7-172.9c11.8-1.4 23.5-2.8 35.5-4.2 0-6.1 0-12.3 0-18.9-11.8 0-23.1-0.6-34.3 0.2-23.9 1.8-39.5 13.9-44.7 34.5-1.7 6.6-2.4 13.7-2.4 20.6-0.2 43.3-0.1 86.6-0.1 130 0 3.2 0 6.4 0 10.2 9.5 0 17.9 0 27.5 0 0-37.3 0-74.1 0-111.5 18.6 0 36.1 0 54.1 0 0-6.9 0-13.1 0-20.3-18.1 0-35.8 0-54 0-0.4-16.8-0.2-32 18.4-40.6zm75.4 82.6c0-7.1 0.1-14.3 0.1-22.1 19 0 36.4 0 54 0 0-7 0-13.1 0-20-18.1 0-35.6 0-53.7 0-0.1-3.2-0.4-5.8-0.4-8.4 0.2-22.2 10-34 34.2-34.4 6.6-0.2 13.1-0.8 20-1.3 0-6.6 0-12.7 0-18.8-13.4 0-26.4-1.1-39.1 0.3-20.1 2.3-34.8 12.9-39.9 33.5-1.6 6.3-2.5 13.1-2.5 19.6-0.2 44.6-0.1 89.2-0.1 133.8 0 2.6 0.5 5.1 0.7 7.4 9.3 0 17.8 0 26.7 0 0-29.7 0-58.6 0-89.6zm377.9-58c0 32.7 0 65.4 0.1 98 0 4.7-0.1 9.4 0.7 13.9 3.7 22.5 11.4 29.6 30.5 34.2 14.1 3.4 28.3 1.9 43 2.2 0-7.3 0-13.9 0-20.6-9.7-0.8-19.3-1.2-28.7-2.6-11.9-1.8-16.6-6.5-17.3-18.3-1.1-15.5-1.2-31.2-1.5-46.8-0.2-7.5 0-15.1 0-23.7 16.3 0 31.8 0 47.4 0 0-7.3 0-13.4 0-20.7-16.1 0-31.6 0-47.6 0 0-14 0-27 0-40-9.1 0-17.5 0-26.6 0 0 7.8 0 15.2 0 24.4zm247.1 147.2c13.4 2.4 26.9 0.7 40.3 1.1 0-7.8 0-14.3 0-21.2-3.6 0-6.6 0.1-9.6-0.1-13.5-0.9-26.9-1.3-39.8-7.2-31.6-14.3-29.8-57.9-6-73.1 9.8-6.2 20.2-9.9 31.8-10.4 7.8-0.4 15.7-1.1 23.7-1.7 0-6.6 0-12.7 0-19.7-16.5 0.8-32.3-0.9-48.2 2.1-26.8 5-61.3 36.6-52 80.8 5.1 24.2 35.8 48.1 59.8 49.4zm102.6-119.3c-1.8 1.8-3.5 3.7-6.4 6.7-0.4-7.4-0.6-13.2-0.9-19-8.9 0-17.4 0-25.9 0 0 44.4 0 88.2 0 132.4 8.8 0 17 0 26.3 0 0-3.9-0.1-7.4 0-11 0.4-20.6 0-41.2 1.6-61.7 1.6-22.8 13.3-34.8 35.7-38.9 7-1.3 14.2-1.4 21.6-2 0-7.4 0-14.3 0-21.5-19.1-2.2-36.8-0.7-52 15z"/>
	<path id="Layer" fill-rule="evenodd" class="s1" d="m678.3 645.3c-51.6 36.8-108.7 53-172.5 51.8 0-18.9 0-37.3 0-56.5-78.2 1-140.4-30-188.8-88.9-37.6-45.7-52.4-99.2-50.6-157.7 3.8-124.5 112.6-231.3 238.9-225.4 0-19.1 0-38.3 0-57.3 2.2-1 3.4-2 4.5-2 33.1 0.6 65.7 4.3 97.2 14.8 39.5 13.2 74 34.2 104.6 62.4 40.4 37.2 68.5 81.8 83.1 134.9 5.6 20.2 8.1 40.9 9.9 61.8 2.9 34.2-0.6 67.7-9.6 100.6-12 44.1-34.6 82.4-65.5 116.1-15.4 16.7-32.3 31.6-51.2 45.4zm-186.8-420.2c-1.7 0-3.3-0.1-5 0-45.4 5-82.6 25.3-112.5 59.9-37.8 43.8-49.8 94.6-41.2 150.7 6.7 44 28.2 80.4 62.2 109.4 40.1 34.4 86.8 45.9 137.9 36.6 57.4-10.5 98.1-45.6 123.1-96.9 27.8-56.8 25.3-114.9-4.7-170.5-20.9-38.9-52.7-66.4-94.9-81.1-20.5-7.1-41.6-8.9-64.9-8.1z"/>
	<path id="Layer" class="s2" d="m1956.4 452.5c-9.4-14.3-12.9-29.6-12.8-46 0.1-37.3 0-74.6 0-111.8 0-3.3 0-6.5 0-10.1 9.2 0 17.4 0 26.3 0 0.2 3 0.4 5.9 0.4 8.8 0.1 35-0.2 69.9 0.2 104.9 0.1 8.8 1.1 18 3.6 26.4 6.5 22 24.1 33.9 46.9 34.5 16.4 0.4 30-4.5 40.4-17.4 19.3-23.9 11.3-57.4-17.3-69.3-18.1-7.5-36.3-6.8-53.1 4.8-2.9 2-5.9 4.1-10.6 7.3 0-9.1-0.2-16.8 0.3-24.5 0.1-1.7 2.5-3.8 4.3-4.9 11.5-7.3 23.8-10.9 37.6-11.2 21-0.4 38.9 5.8 55 19.3 29.5 24.7 29.4 69.5 5.1 95.2-15.4 16.2-34.2 24.7-56.8 24.7-12 0-23.9-0.2-35.4-4.5-13.7-5.2-24.8-13.9-34.1-26.2z"/>
	<path id="Layer" class="s3" d="m1441.6 483.1c-13.5 0.1-26.2 0.6-38.3-4.1-27.3-10.4-49.9-33.8-48.9-67 0.8-25.7 13.4-44.3 35.1-57.7 22.4-13.9 67.7-14.6 89.9 4 9.1 7.6 17 15.9 22.4 26.1-31.7 18.4-63.5 36.9-95.8 55.6-4.1-6.2-7.7-11.7-11.9-18.1 23.9-14.4 47.7-28.7 71.9-43.2-5.3-5.6-10.8-9-17.3-10.5-23.5-5.6-44.8-0.3-57.9 18.2-12.3 17.5-10.2 38.8 2.2 54.6 21 26.8 59.4 25.5 78.4 7.8 6.2-5.7 10.5-13.5 15.3-20.5 2-3 2.9-6.7 4.5-10.8 6.5 3.2 12.6 6.3 18.5 9.2-7.9 32.4-33.8 54.7-68.1 56.4z"/>
	<path id="Layer" fill-rule="evenodd" class="s3" d="m897.3 350.2c15.2-6.8 30.6-7.3 45.8-5.7 28 3 49 17.9 60.3 43.3 13.9 31.1 3.6 63.6-27.4 83.6-14.1 9.1-29.7 12.1-46.5 11.9-19.1-0.2-35.8-5.8-50.9-17.3-34.4-26.3-35.3-76.4-1.4-103.5 5.9-4.7 12.9-8 20.1-12.3zm14.7 21c-2.7 1.2-5.6 2.3-8.1 3.8-23.9 15-30.5 41.4-15.2 63.3 17 24.2 52.3 27.3 73.7 11 21.8-16.5 24.6-46.7 5.4-66.3-15.4-15.7-34-17.7-55.8-11.8z"/>
	<path id="Layer" class="s4" d="m2169.8 344.8c14.1-0.7 27.6-2.3 40.4 2.4 24.9 9.2 38.2 26.9 39.3 54.4 1 24.6 0.2 49.3 0.2 74 0 1.2-0.4 2.5-0.7 4.2-8.8 0-17.3 0-26.7 0 0-4.5 0-8.4 0-12.3-0.2-22 0.1-44-0.9-65.9-0.5-12-5.3-22.8-16.8-28.8-13.2-6.9-26.9-6.7-40.2-0.3-9.7 4.7-14.2 13.8-16 23.9-1.3 7.5-1.8 15.2-1.9 22.7-0.3 20-0.1 40-0.1 60.6-9 0-17.5 0-26.3 0-0.2-2.8-0.5-5.4-0.5-8 0-22 0.3-44-0.1-66-0.5-32.7 21.1-56.3 50.3-60.9z"/>
	<path id="Layer" class="s4" d="m1260 480.3c-14.2 0-27.5 0-41.2 0 0-6.9 0-12.7 0-19.3 2.4-0.3 4.9-0.7 7.4-0.8 13.4 0 26.7 0.2 40 0 9.9-0.2 19.9-0.6 29.8-1.2 8-0.5 13-4.2 14.1-10.2 1.5-7.5-1.3-13.4-9.5-16.3-15.6-5.6-31.6-10.3-47.3-15.5-8.1-2.8-16.3-5.6-24.1-9.1-11.7-5.1-16.8-15-16.7-27.1 0-12.5 5.3-22.9 17.5-27.7 7.6-3 16-5.5 24.1-5.8 23.2-0.7 46.5-0.2 69.9-0.2 0.9 0 1.8 0.4 3.2 0.8 0 5.9 0 11.8 0 18.5-2.2 0.2-4.8 0.7-7.3 0.7-15.6 0.1-31.3-0.2-46.9 0.1-6.6 0.1-13.2 0.8-19.8 1.7-7.5 1.2-12.2 5.8-12.8 12-0.4 5.2 2.8 9.7 9.5 12.7 2.7 1.2 5.5 2.1 8.4 3 17 5.4 34.2 10.7 51.2 16.1 3.5 1.1 6.8 2.8 10.2 4 21.9 8 22.2 32.4 14.7 46.8-3.9 7.4-10.8 11-18 13.3-6.5 2.1-13.6 3.1-20.5 3.4-11.6 0.5-23.2 0.1-35.9 0.1z"/>
	<path id="Layer" class="s5" d="m1073.6 307.7c-17.9 8.3-18.1 23.5-17.7 40.3 18.2 0 35.9 0 54 0 0 7.2 0 13.4 0 20.3-18 0-35.5 0-54.1 0 0 37.4 0 74.2 0 111.5-9.6 0-18 0-27.5 0 0-3.8 0-7 0-10.2 0-43.4-0.1-86.7 0.1-130 0-6.9 0.7-14 2.4-20.6 5.2-20.6 20.8-32.7 44.7-34.5 11.2-0.8 22.5-0.2 34.3-0.2 0 6.6 0 12.8 0 18.9-12 1.4-23.7 2.8-36.2 4.5z"/>
	<path id="Layer" class="s5" d="m1149.7 391c0 30 0 58.9 0 88.6-8.9 0-17.4 0-26.7 0-0.2-2.3-0.7-4.8-0.7-7.4 0-44.6-0.1-89.2 0.1-133.8 0-6.5 0.9-13.3 2.5-19.6 5.1-20.6 19.8-31.2 39.9-33.5 12.7-1.4 25.7-0.3 39.1-0.3 0 6.1 0 12.2 0 18.8-6.9 0.5-13.4 1.1-20 1.3-24.2 0.4-34 12.2-34.2 34.4 0 2.6 0.3 5.2 0.4 8.4 18.1 0 35.6 0 53.7 0 0 6.9 0 13 0 20-17.6 0-35 0-54 0 0 7.8-0.1 15-0.1 23.1z"/>
	<path id="Layer" class="s2" d="m1527.6 331.1c0-8.3 0-15.7 0-23.5 9.1 0 17.5 0 26.6 0 0 13 0 26 0 40 16 0 31.5 0 47.6 0 0 7.3 0 13.4 0 20.7-15.6 0-31.1 0-47.4 0 0 8.6-0.2 16.2 0 23.7 0.3 15.6 0.4 31.3 1.5 46.8 0.7 11.8 5.4 16.5 17.3 18.3 9.4 1.4 19 1.8 28.7 2.6 0 6.7 0 13.3 0 20.6-14.7-0.3-28.9 1.2-43-2.2-19.1-4.6-26.8-11.7-30.5-34.2-0.8-4.5-0.7-9.2-0.7-13.9-0.1-32.6-0.1-65.3-0.1-98.9z"/>
	<path id="Layer" class="s4" d="m1773.8 479.1c-23.1-1.2-53.8-25.1-58.9-49.3-9.3-44.2 25.2-75.8 52-80.8 15.9-3 31.7-1.3 48.2-2.1 0 7 0 13.1 0 19.7-8 0.6-15.9 1.3-23.7 1.7-11.6 0.5-22 4.2-31.8 10.4-23.8 15.2-25.6 58.8 6 73.1 12.9 5.9 26.3 6.3 39.8 7.2 3 0.2 6 0.1 9.6 0.1 0 6.9 0 13.4 0 21.2-13.4-0.4-26.9 1.3-41.2-1.2z"/>
	<path id="Layer" class="s2" d="m1877.8 359.3c14.7-15.1 32.4-16.6 51.5-14.4 0 7.2 0 14.1 0 21.5-7.4 0.6-14.6 0.7-21.6 2-22.4 4.1-34.1 16.1-35.7 38.9-1.6 20.5-1.2 41.1-1.6 61.7-0.1 3.6 0 7.1 0 11-9.3 0-17.5 0-26.3 0 0-44.2 0-88 0-132.4 8.5 0 17 0 25.9 0 0.3 5.8 0.5 11.6 0.9 19 2.9-3 4.6-4.9 6.9-7.3z"/>
	<path id="Layer" class="s6" d="m492.5 225.1c22.3-0.8 43.4 1 63.9 8.1 42.2 14.7 74 42.2 94.9 81.1 30 55.6 32.5 113.7 4.7 170.5-25 51.3-65.7 86.4-123.1 96.9-51.1 9.3-97.8-2.2-137.9-36.6-34-29-55.5-65.4-62.2-109.4-8.6-56.1 3.4-106.9 41.2-150.7 29.9-34.6 67.1-54.9 112.5-59.9 1.7-0.1 3.3 0 6 0z"/>
	<path id="Layer" class="s6" d="m912.8 371c21-5.7 39.6-3.7 55 12 19.2 19.6 16.4 49.8-5.4 66.3-21.4 16.3-56.7 13.2-73.7-11-15.3-21.9-8.7-48.3 15.2-63.3 2.5-1.5 5.4-2.6 8.9-4z"/>
</svg>